<?xml version="1.0" encoding="UTF-8"?>
<svg id="Layer_1" xmlns="http://www.w3.org/2000/svg" version="1.1" viewBox="0 0 800 600">
  <!-- Generator: Adobe Illustrator 30.3.0, SVG Export Plug-In . SVG Version: 2.1.3 Build 182)  -->
  <defs>
    <style>
      .st0 {
        font-size: 18px;
        letter-spacing: .3em;
      }

      .st0, .st1 {
        font-family: Cairo-Regular, Cairo;
      }

      .st1 {
        font-size: 28px;
        letter-spacing: .3em;
      }

      .st1, .st2, .st3, .st4, .st5, .st6, .st7 {
        isolation: isolate;
      }

      .st1, .st2, .st5, .st6, .st8 {
        fill: #5e6268;
      }

      .st9 {
        fill: #ffb4c8;
      }

      .st2 {
        letter-spacing: .3em;
      }

      .st2, .st5, .st10 {
        font-size: 24px;
      }

      .st2, .st6 {
        font-family: Helvetica, Helvetica;
      }

      .st11 {
        opacity: .8;
      }

      .st11, .st12 {
        fill: #ebbf7e;
      }

      .st4 {
        font-family: Inter18pt-Black, 'Inter 18pt';
        font-weight: 800;
      }

      .st4, .st7 {
        fill: #1a1a1a;
        font-size: 110px;
      }

      .st5 {
        font-family: Helvetica-Light, Helvetica;
        font-weight: 300;
        letter-spacing: .3em;
      }

      .st6 {
        font-size: 21px;
        letter-spacing: .3em;
      }

      .st13 {
        fill: #ffb8cb;
        opacity: .6;
      }

      .st10 {
        letter-spacing: .3em;
      }

      .st10, .st7 {
        font-family: PlayfairDisplay-Regular, 'Playfair Display';
      }

      .st14 {
        letter-spacing: -.2em;
      }

      .st15, .st7 {
        letter-spacing: 0em;
      }
    </style>
  </defs>
  <g>
    <path class="st12" d="M419.2,319.9c-53,0-96,43-96,96s43,96,96,96v-192Z"/>
    <path class="st9" d="M419.2,367.9c53,0,96,43,96,96s-43,96-96,96v-192Z"/>
  </g>
  <g>
    <text class="st4" transform="translate(353.8 463.9)"><tspan class="st15" x="0" y="0">k</tspan><tspan class="st14" x="60.7" y="0"> </tspan><tspan class="st15" x="64.7" y="0">t.</tspan></text>
    <text class="st2" transform="translate(319.2 492.7)"><tspan x="0" y="0">VELASQUEZ</tspan></text>
  </g>
  <path class="st11" d="M102.8,175.4c0,58.1,47.1,105.2,105.2,105.2,58.1,0,105.2-47.1,105.2-105.2H102.8Z"/>
  <path class="st13" d="M25.3,175.4c0-79.5,64.5-144,144-144s144,64.5,144,144H25.3Z"/>
  <text class="st4" transform="translate(113.1 172.4)"><tspan class="st15" x="0" y="0">k</tspan><tspan class="st14" x="60.7" y="0"> </tspan><tspan class="st15" x="64.7" y="0">t.</tspan></text>
  <text class="st6" transform="translate(120.5 197.6)"><tspan x="0" y="0">VELASQUEZ</tspan></text>
  <g>
    <path class="st12" d="M691.6,343.9c-53,0-96,43-96,96s43,96,96,96v-192Z"/>
    <path class="st9" d="M691.6,391.9c53,0,96,43,96,96s-43,96-96,96v-192Z"/>
  </g>
  <text class="st7" transform="translate(621.8 495)"><tspan x="0" y="0">KT.</tspan></text>
  <text class="st5" transform="translate(593.5 521.1)"><tspan x="0" y="0">VELASQUEZ</tspan></text>
  <text class="st10" transform="translate(622.7 652.2)"><tspan x="0" y="0">Lorem ipsum</tspan></text>
  <g>
    <path class="st12" d="M142.8,318.7c-53,0-96,43-96,96s43,96,96,96v-192Z"/>
    <path class="st9" d="M142.8,366.7c53,0,96,43,96,96s-43,96-96,96v-192Z"/>
  </g>
  <g>
    <text class="st4" transform="translate(77.4 462.7)"><tspan class="st15" x="0" y="0">k</tspan><tspan class="st14" x="60.7" y="0"> </tspan><tspan class="st15" x="64.7" y="0">t.</tspan></text>
    <g class="st3">
      <path class="st8" d="M65.4,476.7c-1.6.3-1.8.6-2.7,2.7-.7,1.8-3.3,8.4-5.1,13h-.3c-1.6-4.5-3.2-9-4.8-13.3-.7-1.9-1-2.1-2.6-2.3v-.3h5.6v.3c-1.6.3-1.8.6-1.5,1.5.6,1.8,3.5,9.7,4.1,11.3,1-2.4,2.8-7.5,3.9-10.6.5-1.5.5-1.8-1.7-2.1v-.3h5v.3Z"/>
      <path class="st8" d="M84.6,488.6c-.1.8-.6,2.7-.7,3.4h-10.9v-.3c2.1-.3,2.3-.5,2.3-2.4v-10c0-2.1,0-2.2-1.9-2.6v-.3h6.8c2.1,0,2.8,0,3.2,0,0,.8,0,2.6.2,3.3h-.3c-.2-.6-.5-1.4-.7-1.8-.5-.7-.7-.7-2.2-.7h-2.6c-.6,0-.7,0-.7.7v5.6h3c1.6,0,1.8-.3,2.1-1.9h.3v4.5h-.3c-.4-1.7-.6-1.9-2.1-1.9h-3v5.7c0,1.6.6,1.7,2,1.7h2.4c1.2,0,1.5-.2,2.1-1.1.4-.5.6-1.1.9-1.7h.3Z"/>
      <path class="st8" d="M104.3,488.3c-.1.7-.6,2.8-.9,3.6h-10.6v-.3c2.1-.3,2.3-.5,2.3-2.4v-10.2c0-2-.2-2.1-2.1-2.4v-.3h5.7v.3c-1.8.3-1.9.4-1.9,2.4v10.5c0,1.7.3,1.8,1.9,1.8s1.2,0,1.6,0c1.4,0,2,0,2.6-.9.4-.6.7-1.2,1.1-2.1h.3Z"/>
      <path class="st8" d="M122,492v-.3c1.3-.2,1.7-.4,1.4-1.3-.3-1-.9-2.8-1.6-4.8h-4.8c-.5,1.5-1,2.8-1.3,3.9-.5,1.6-.2,1.8,1.7,2.2v.3h-5v-.3c1.3-.2,1.8-.4,2.6-2.7l5-12.9h.3c1.5,4.3,3,8.7,4.7,13.2.7,2.1,1,2.1,2.5,2.4v.3h-5.4ZM119.4,478.8c-.8,2-1.5,4.1-2.2,6.1h4.4l-2.1-6.1Z"/>
      <path class="st8" d="M143.6,479.6c-.4-1.7-1.2-3-3.3-3s-2.6,1.3-2.6,2.8,1,2.6,2.9,3.7c1.8,1.1,3.9,2.3,3.9,4.9s-2.1,4.5-4.9,4.5-2.7-.4-3.4-.7c-.1-.6-.5-2.8-.6-3.2h.3c.4,1.4,1.5,3.4,4,3.4s2.9-1.6,2.9-3.2-1.2-2.9-2.9-3.9c-1.8-1.1-3.8-2.3-3.8-4.7s1.8-4,4.6-4,2.4.3,2.9.4c0,.8.2,2,.4,3.1h-.4Z"/>
      <path class="st8" d="M161.8,476c4,0,7.6,3.2,7.6,7.9s-3.5,8.4-7.8,8.4-7.6-3.5-7.6-7.9,3-8.4,7.8-8.4ZM161.4,476.6c-2.9,0-5.3,2.5-5.3,7.2s2.4,8.1,6,8.1,5.2-2.6,5.2-7.1-2.5-8.1-6-8.1ZM163.2,491.2c2.4,1.8,5.1,3.5,6.5,4v.3c-1.2,0-2.3,0-3-.3-1.6-.6-3.7-2.1-5.5-3.4l2-.6Z"/>
      <path class="st8" d="M194.1,476.7c-1.7.3-1.8.7-1.9,1.9,0,.6,0,1.3,0,3.5v3.2c0,2.2-.2,4.1-1.6,5.5-1.1,1.1-2.6,1.5-4.2,1.5s-2.9-.4-3.8-1.1c-1.5-1.2-2-2.7-2-5.5v-6.5c0-2.1-.1-2.3-1.9-2.6v-.3h5.5v.3c-1.8.3-1.9.5-1.9,2.6v6.2c0,3.7,1.3,5.9,4.8,5.9s4.4-2.4,4.4-6v-3.2c0-2.2,0-2.9,0-3.6,0-1.2-.3-1.6-2.2-1.8v-.3h5v.3Z"/>
      <path class="st8" d="M214.1,488.6c-.1.8-.6,2.7-.7,3.4h-10.9v-.3c2.1-.3,2.3-.5,2.3-2.4v-10c0-2.1,0-2.2-1.9-2.6v-.3h6.8c2.1,0,2.8,0,3.2,0,0,.8,0,2.6.2,3.3h-.3c-.2-.6-.5-1.4-.7-1.8-.5-.7-.7-.7-2.2-.7h-2.6c-.6,0-.7,0-.7.7v5.6h3c1.6,0,1.8-.3,2.1-1.9h.3v4.5h-.3c-.4-1.7-.6-1.9-2.1-1.9h-3v5.7c0,1.6.6,1.7,2,1.7h2.4c1.2,0,1.5-.2,2.1-1.1.4-.5.6-1.1.9-1.7h.3Z"/>
      <path class="st8" d="M235.8,488.3c-.2.8-.6,2.5-.9,3.6h-11.8v-.2c3.2-4.9,6.5-9.8,9.8-14.7h-5.6c-1.7,0-2.1.3-2.5,1.2-.2.4-.4.9-.6,1.6h-.4c.1-1.1.4-3.1.4-4h.3c.2.6.6.6,1.6.6h9v.2c-3.2,4.8-6.5,9.7-9.7,14.7.6,0,1.9,0,3.9,0,3.9,0,4.3-.2,5-1,.5-.6.8-1.4,1.2-2.1h.4Z"/>
    </g>
    <text/>
  </g>
  <g>
    <path class="st12" d="M535.9,94.3c-53,0-96,43-96,96s43,96,96,96V94.3Z"/>
    <path class="st9" d="M535.9,142.3c53,0,96,43,96,96s-43,96-96,96v-192Z"/>
  </g>
  <text class="st4" transform="translate(470.4 236.3)"><tspan class="st15" x="0" y="0">k</tspan><tspan class="st14" x="60.7" y="0"> </tspan><tspan class="st15" x="64.7" y="0">t.</tspan></text>
  <text class="st1" transform="translate(430.4 269.8)"><tspan x="0" y="0">VELASQUEZ</tspan></text>
  <text class="st0" transform="translate(334 -188.2)"><tspan x="0" y="0">Lorem ipsum</tspan></text>
</svg>